<svg width="38" height="38" viewBox="0 0 38 38" fill="none" xmlns="http://www.w3.org/2000/svg">
<rect width="38" height="38" rx="5" fill="#002841"/>
<path d="M18 11H11C10.4696 11 9.96086 11.2107 9.58579 11.5858C9.21071 11.9609 9 12.4696 9 13V27C9 27.5304 9.21071 28.0391 9.58579 28.4142C9.96086 28.7893 10.4696 29 11 29H25C25.5304 29 26.0391 28.7893 26.4142 28.4142C26.7893 28.0391 27 27.5304 27 27V20" stroke="white" stroke-width="2" stroke-linecap="round" stroke-linejoin="round"/>
<path d="M25.5 9.50023C25.8978 9.1024 26.4374 8.87891 27 8.87891C27.5626 8.87891 28.1022 9.1024 28.5 9.50023C28.8978 9.89805 29.1213 10.4376 29.1213 11.0002C29.1213 11.5628 28.8978 12.1024 28.5 12.5002L19 22.0002L15 23.0002L16 19.0002L25.5 9.50023Z" stroke="white" stroke-width="2" stroke-linecap="round" stroke-linejoin="round"/>
</svg>
