<svg width="40" height="40" viewBox="0 0 40 40" fill="none" xmlns="http://www.w3.org/2000/svg">
<rect width="40" height="40" rx="20" fill="#FAFAFA"/>
<path d="M20.0018 9.33301C19.4718 9.33301 18.9487 9.40256 18.4442 9.53675C17.3778 9.82038 16.3941 10.3928 15.602 11.2075C14.4351 12.4078 13.7796 14.0356 13.7796 15.733C13.7796 23.1997 10.6685 25.333 10.6685 25.333H29.3351C29.3351 25.333 28.3236 24.6394 27.4541 22.6588" stroke="#002841" stroke-width="2" stroke-linecap="round" stroke-linejoin="round"/>
<path d="M22.666 29.333C22.4628 29.7385 22.171 30.0752 21.82 30.3092C21.469 30.5432 21.0711 30.6663 20.666 30.6663C20.261 30.6663 19.863 30.5432 19.512 30.3092C19.161 30.0752 18.8693 29.7385 18.666 29.333" stroke="#002841" stroke-width="2" stroke-linecap="round" stroke-linejoin="round"/>
<circle cx="26" cy="15.0684" r="6" fill="#DF0024"/>
<path d="M24.59 13.1484L24.02 12.5284C23.95 12.4584 23.95 12.3584 24.02 12.2884C24.73 11.5484 25.49 11.2284 26.17 11.2284C27.36 11.2284 28.28 11.8684 28.28 13.1884C28.28 13.7684 27.9 14.4384 27.45 15.0584L26.16 16.7984H27.93C28.02 16.7984 28.1 16.8784 28.1 16.9684V17.8984C28.1 17.9884 28.02 18.0684 27.93 18.0684H24.24C24.15 18.0684 24.07 17.9884 24.07 17.8984V17.6784C24.07 17.5684 24.1 17.4584 24.17 17.3684L26.45 14.2584C26.89 13.6384 26.96 13.2784 26.96 13.1484C26.96 12.8084 26.78 12.4384 26.18 12.4384C25.78 12.4384 25.33 12.6984 24.83 13.1484C24.76 13.2184 24.66 13.2084 24.59 13.1484Z" fill="white"/>
</svg>
